<svg width="138" height="24" viewBox="0 0 138 24" fill="none" xmlns="http://www.w3.org/2000/svg">
<path d="M15.0938 20.5469V23H3.04688V20.5469H15.0938ZM3.65625 0.25V23H0.640625V0.25H3.65625ZM13.5 10.0312V12.4844H3.04688V10.0312H13.5ZM14.9375 0.25V2.71875H3.04688V0.25H14.9375Z" fill="#C1C5CE"/>
<path d="M39.6881 0.25V23H36.6569L25.2038 5.45312V23H22.1881V0.25H25.2038L36.7038 17.8438V0.25H39.6881Z" fill="#C1C5CE"/>
<path d="M55.7356 19.5469L62.4388 0.25H65.7044L57.2825 23H54.9544L55.7356 19.5469ZM49.47 0.25L56.1106 19.5469L56.9388 23H54.6106L46.2044 0.25H49.47Z" fill="#C1C5CE"/>
<path d="M86.9863 10.0312V12.4844H74.6738V10.0312H86.9863ZM75.1425 0.25V23H72.1269V0.25H75.1425ZM89.6113 0.25V23H86.6113V0.25H89.6113Z" fill="#C1C5CE"/>
<path d="M111.346 0.25H114.346V15.6406C114.346 17.349 113.966 18.7708 113.206 19.9062C112.445 21.0417 111.435 21.8958 110.174 22.4688C108.924 23.0312 107.565 23.3125 106.096 23.3125C104.555 23.3125 103.159 23.0312 101.909 22.4688C100.669 21.8958 99.6848 21.0417 98.9556 19.9062C98.2369 18.7708 97.8775 17.349 97.8775 15.6406V0.25H100.862V15.6406C100.862 16.8281 101.081 17.8073 101.518 18.5781C101.956 19.349 102.565 19.9219 103.346 20.2969C104.138 20.6719 105.055 20.8594 106.096 20.8594C107.148 20.8594 108.065 20.6719 108.846 20.2969C109.638 19.9219 110.253 19.349 110.69 18.5781C111.128 17.8073 111.346 16.8281 111.346 15.6406V0.25Z" fill="#C1C5CE"/>
<path d="M130.55 12.3594H124.784L124.753 9.9375H129.988C130.852 9.9375 131.607 9.79167 132.253 9.5C132.899 9.20833 133.399 8.79167 133.753 8.25C134.118 7.69792 134.3 7.04167 134.3 6.28125C134.3 5.44792 134.139 4.77083 133.816 4.25C133.503 3.71875 133.019 3.33333 132.363 3.09375C131.717 2.84375 130.894 2.71875 129.894 2.71875H125.456V23H122.441V0.25H129.894C131.06 0.25 132.102 0.369792 133.019 0.609375C133.935 0.838542 134.711 1.20312 135.347 1.70312C135.993 2.19271 136.482 2.81771 136.816 3.57812C137.149 4.33854 137.316 5.25 137.316 6.3125C137.316 7.25 137.076 8.09896 136.597 8.85938C136.118 9.60938 135.451 10.224 134.597 10.7031C133.753 11.1823 132.764 11.4896 131.628 11.625L130.55 12.3594ZM130.409 23H123.597L125.3 20.5469H130.409C131.368 20.5469 132.18 20.3802 132.847 20.0469C133.524 19.7135 134.04 19.2448 134.394 18.6406C134.748 18.026 134.925 17.3021 134.925 16.4688C134.925 15.625 134.774 14.8958 134.472 14.2812C134.17 13.6667 133.696 13.1927 133.05 12.8594C132.404 12.526 131.571 12.3594 130.55 12.3594H126.253L126.284 9.9375H132.159L132.8 10.8125C133.894 10.9062 134.821 11.2188 135.581 11.75C136.342 12.2708 136.92 12.9375 137.316 13.75C137.722 14.5625 137.925 15.4583 137.925 16.4375C137.925 17.8542 137.613 19.0521 136.988 20.0312C136.373 21 135.503 21.7396 134.378 22.25C133.253 22.75 131.93 23 130.409 23Z" fill="#C1C5CE"/>
</svg>
